<svg id="Layer_1" data-name="Layer 1" xmlns="http://www.w3.org/2000/svg" viewBox="0 0 247.27 31.99"><defs><style>.cls-1{fill:#da3732;}</style></defs><title>CR_logo_HEXDA3732_red</title><path class="cls-1" d="M25.37,75v-.08A14.41,14.41,0,0,1,40.06,60.18a14.83,14.83,0,0,1,11.15,4.44L48,68.32c-2.28-2.12-4.72-3.54-8-3.54-5.41,0-9.4,4.47-9.4,10v.08C30.62,80.48,34.57,85,40,85c3.5,0,5.73-1.39,8.18-3.66l3.21,3.25a14.7,14.7,0,0,1-11.55,5A14.32,14.32,0,0,1,25.37,75Z" transform="translate(-25.37 -57.65)"/><path class="cls-1" d="M55.84,60.67h5V84.59h15v4.56h-20Z" transform="translate(-25.37 -57.65)"/><path class="cls-1" d="M80.21,60.67h21.12v4.47H85.22v7.41H99.5V77H85.22v7.65h16.31v4.48H80.21Z" transform="translate(-25.37 -57.65)"/><path class="cls-1" d="M117.56,60.47h4.64l12.53,28.68h-5.29l-2.89-6.88H113.08l-2.93,6.88H105Zm7.16,17.37L119.8,66.45l-4.89,11.39Z" transform="translate(-25.37 -57.65)"/><path class="cls-1" d="M165,78.49v-.08c0-6.15,4.35-11.19,10.49-11.19,6.84,0,10.29,5.37,10.29,11.55,0,.45,0,.9-.08,1.39H169.89a6,6,0,0,0,6.18,5.45A7.81,7.81,0,0,0,181.89,83l2.89,2.57a10.87,10.87,0,0,1-8.79,4A10.71,10.71,0,0,1,165,78.49Zm15.9-1.59c-.32-3.17-2.19-5.65-5.45-5.65-3,0-5.12,2.32-5.57,5.65Z" transform="translate(-25.37 -57.65)"/><path class="cls-1" d="M189.62,86.34l2.2-3.34a12.13,12.13,0,0,0,7,2.65c2.12,0,3.34-.9,3.34-2.32v-.08c0-1.67-2.28-2.24-4.8-3-3.17-.9-6.71-2.2-6.71-6.31v-.08c0-4.07,3.37-6.55,7.64-6.55a15,15,0,0,1,7.9,2.44l-2,3.5a12.45,12.45,0,0,0-6.06-2c-1.91,0-3,.89-3,2.11v.08c0,1.59,2.32,2.24,4.84,3,3.14,1,6.67,2.4,6.67,6.27v.08c0,4.52-3.49,6.75-8,6.75A15.1,15.1,0,0,1,189.62,86.34Z" transform="translate(-25.37 -57.65)"/><path class="cls-1" d="M211.51,81.34V67.67h4.92v12.2c0,3.34,1.67,5.21,4.59,5.21s4.85-2,4.85-5.29V67.67h5V89.15h-5V85.81a7.75,7.75,0,0,1-6.72,3.78C214.31,89.59,211.51,86.34,211.51,81.34Z" transform="translate(-25.37 -57.65)"/><path class="cls-1" d="M143.33,89.15h-5V60.67H151c3.58,0,6.38,1.06,8.22,2.85a8.61,8.61,0,0,1,2.35,6.14v.08c0,4.68-2.8,7.49-6.75,8.63l7.69,10.78h-5.94L146.45,74.79h4.2c3.58,0,5.86-1.88,5.86-4.76V70c0-3.06-2.2-4.72-5.9-4.72h-7.28Z" transform="translate(-25.37 -57.65)"/><path class="cls-1" d="M250.11,83.21V71.9h-2.72V67.67h2.72v-5.9H255v5.9h5.77V71.9H255V82.43c0,1.92,1,2.69,2.64,2.69a6.59,6.59,0,0,0,3.05-.73v4a8.42,8.42,0,0,1-4.43,1.1C252.68,89.51,250.11,87.93,250.11,83.21Z" transform="translate(-25.37 -57.65)"/><path class="cls-1" d="M237.75,59l4.92-1.34v31.5h-4.92Z" transform="translate(-25.37 -57.65)"/><path class="cls-1" d="M263.19,62.8a4.72,4.72,0,0,1,1.4-3.37,4.78,4.78,0,0,1,1.5-1,4.7,4.7,0,0,1,1.83-.36,4.65,4.65,0,0,1,1.82.36,4.94,4.94,0,0,1,1.51,1,4.84,4.84,0,0,1,1,5.25,4.49,4.49,0,0,1-1,1.49,5.16,5.16,0,0,1-1.51,1,4.65,4.65,0,0,1-1.82.36,4.7,4.7,0,0,1-1.83-.36,5,5,0,0,1-1.5-1,4.49,4.49,0,0,1-1-1.49A4.64,4.64,0,0,1,263.19,62.8Zm.84,0a4.07,4.07,0,0,0,1.13,2.88,3.92,3.92,0,0,0,1.23.85,3.74,3.74,0,0,0,1.53.31,3.69,3.69,0,0,0,1.52-.31,3.92,3.92,0,0,0,1.23-.85,4,4,0,0,0,.83-1.28,4.39,4.39,0,0,0,0-3.19,3.87,3.87,0,0,0-2.06-2.14,3.86,3.86,0,0,0-1.52-.31,3.8,3.8,0,0,0-2.76,1.16,4.09,4.09,0,0,0-.83,1.29A4.17,4.17,0,0,0,264,62.8ZM266.11,60h2.09c1.28,0,1.93.53,1.93,1.58a1.36,1.36,0,0,1-.42,1.1,1.9,1.9,0,0,1-1,.41l1.58,2.44h-.9l-1.5-2.38H267v2.38h-.84ZM267,62.5h.87l.54,0a1.3,1.3,0,0,0,.47-.11.69.69,0,0,0,.33-.28.89.89,0,0,0,.13-.52.75.75,0,0,0-.12-.45.66.66,0,0,0-.29-.26,1.27,1.27,0,0,0-.39-.12l-.43,0H267Z" transform="translate(-25.37 -57.65)"/></svg>